# xmcd
# 
# Track frame offsets:
#     150
#     11382
#     29246
#     39958
#     60403
#     83167
#     102631
#     116053
#     156880
#     171768
#     195000
#     210385
#     237970
#     258814
#     274082
#     298313
# 
# Disc length: 4166
# 
# Revision: 1
# Processed by: cddbd v1.5.2PL0 Copyright (c) Steve Scherf et al.
# Submitted via: BonkEnc v1.0.8
# 
DISCID=d6104410
DTITLE=Legião Urbana - Mais Do Mesmo
DYEAR=1998
DGENRE=Rock Nacional
TTITLE0=Será
TTITLE1=Ainda é Cedo
TTITLE2=Geração Coca-Cola
TTITLE3=Eduardo e Mônica
TTITLE4=Tempo Perdido
TTITLE5=Índios
TTITLE6=Que País é Este
TTITLE7=Faroeste Caboclo
TTITLE8=Há Tempos
TTITLE9=Pais e Filhos
TTITLE10=Meninos e Meninas
TTITLE11=Vento no Litoral
TTITLE12=Perfeição
TTITLE13=Giz
TTITLE14=Dezesseis
TTITLE15=Antes das Seis
EXTD=
EXTT0=
EXTT1=
EXTT2=
EXTT3=
EXTT4=
EXTT5=
EXTT6=
EXTT7=
EXTT8=
EXTT9=
EXTT10=
EXTT11=
EXTT12=
EXTT13=
EXTT14=
EXTT15=
PLAYORDER=
